<?xml version="1.0" encoding="UTF-8"?>
<svg xmlns="http://www.w3.org/2000/svg" xmlns:xlink="http://www.w3.org/1999/xlink" viewBox="0 0 810.98 810.98">
  <defs>
    <style>
      .cls-1 {
        fill: none;
      }

      .cls-2 {
        mask: url(#mask);
      }

      .cls-3 {
        fill: #efb100;
      }

      .cls-4 {
        fill: #efb100;
      }

      .cls-5 {
        fill: url(#linear-gradient-2);
      }

      .cls-6 {
        fill: url(#linear-gradient);
      }

      .cls-7 {
        isolation: isolate;
      }

      .cls-8 {
        clip-path: url(#clippath-1);
      }

      .cls-9 {
        clip-path: url(#clippath-2);
      }

      .cls-10 {
        fill: #c96;
      }

      .cls-11 {
        fill: #fff;
      }

      .cls-12 {
        fill: #a27035;
      }

      .cls-13 {
        fill: #ffd230;
      }

      .cls-14 {
        fill: #fef9c2;
      }

      .cls-15 {
        fill: #630;
      }

      .cls-16 {
        opacity: .5;
      }

      .cls-16, .cls-17 {
        fill: #121827;
        mix-blend-mode: multiply;
      }

      .cls-17 {
        opacity: .29;
      }

      .cls-18 {
        clip-path: url(#clippath);
      }

      .cls-19 {
        mix-blend-mode: screen;
        opacity: .21;
      }
    </style>
    <linearGradient id="linear-gradient" x1="145.12" y1="287.33" x2="700.12" y2="842.32" gradientUnits="userSpaceOnUse">
      <stop offset="0" stop-color="#471b94"/>
      <stop offset=".27" stop-color="#4741ad"/>
      <stop offset="1" stop-color="#4aa3ee"/>
    </linearGradient>
    <linearGradient id="linear-gradient-2" x1="-45.46" y1="140.87" x2="1368.54" y2="957.25" gradientUnits="userSpaceOnUse">
      <stop offset="0" stop-color="#fff"/>
      <stop offset="1" stop-color="#000"/>
    </linearGradient>
    <mask id="mask" x="-136.3" y="-142.36" width="1092.1" height="1092.1" maskUnits="userSpaceOnUse">
      <rect class="cls-5" x="-136.3" y="-142.36" width="1092.1" height="1092.1"/>
    </mask>
    <clipPath id="clippath">
      <path id="Background_rectangle-2" data-name="Background rectangle" class="cls-1" d="M789.26,598.82c-32.81-106.15-94.79-219.53-153.03-315.34-45.89-75.51-121.24-194.15-193.77-245.82-16.9-12.04-29.26-22.02-51.82-13.58-45.28,16.93-109.36,101.9-137.54,140.75-74.41,102.6-143.82,222.82-194.37,337.86-22.32,50.79-56.36,131.1-51.8,185.76,3.48,41.68,73.62,57.74,109.02,65.58,144.15,31.92,331.74,31.41,478.22,14.94,49.74-5.59,166.06-18.82,199.37-55.74,22.95-25.45,4.89-84.73-4.28-114.4Z"/>
    </clipPath>
    <clipPath id="clippath-1">
      <path class="cls-1" d="M543.35,304.35l-2.86.51c-15.79-10.72-33.98-18.42-52.73-22.1l-1.65-2.38c25.45-41.62,80.02-151.48,107.21-197.38,30.15-50.9,84.36-14.95,57.09,29.61-28.66,46.84-107.08,191.74-107.08,191.74Z"/>
    </clipPath>
    <clipPath id="clippath-2">
      <path class="cls-1" d="M544.39,378.82c-1.77,4.69-4.05,8.63-7.18,13.19-24.63-27.35-85.36-57.73-122.87-55.45,1.49-6.02,2.65-9.32,4.52-14.24,23.73-2,47.74,4.16,68.94,14.04,21.01,9.79,42.73,23.74,56.58,42.46Z"/>
    </clipPath>
  </defs>
  <g class="cls-7">
    <g id="Layer_1" data-name="Layer 1">
      <g id="Triangle">
        <g id="Background_rectangle" data-name="Background rectangle">
          <path class="cls-6" d="M789.26,598.82c-32.81-106.15-94.79-219.53-153.03-315.34-45.89-75.51-121.24-194.15-193.77-245.82-16.9-12.04-29.26-22.02-51.82-13.58-45.28,16.93-109.36,101.9-137.54,140.75-74.41,102.6-143.82,222.82-194.37,337.86-22.32,50.79-56.36,131.1-51.8,185.76,3.48,41.68,73.62,57.74,109.02,65.58,144.15,31.92,331.74,31.41,478.22,14.94,49.74-5.59,166.06-18.82,199.37-55.74,22.95-25.45,4.89-84.73-4.28-114.4Z"/>
        </g>
        <path id="Inner_rectangle" data-name="Inner rectangle" class="cls-16" d="M670.17,558.67c-22.63-73.2-65.37-151.39-105.53-217.46-31.65-52.07-83.6-133.88-133.62-169.51-11.66-8.3-20.18-15.18-35.73-9.37-31.22,11.68-75.41,70.27-94.84,97.06-51.31,70.75-99.18,153.66-134.03,232.98-15.39,35.02-38.86,90.4-35.72,128.1,2.4,28.74,50.77,39.82,75.18,45.22,99.4,22.01,228.77,21.66,329.77,10.3,34.3-3.86,114.51-12.98,137.48-38.44,15.83-17.55,3.37-58.43-2.95-78.89Z"/>
        <g class="cls-2">
          <g id="Single_stroke_expanded" data-name="Single stroke expanded" class="cls-19">
            <path class="cls-11" d="M405.62,58.18c41.45,3.37,115.47,82.29,232.47,267.17,74.78,123.03,155.54,327.64,128.76,364.77-39.76,55.13-265.64,68.8-373.61,70.05-101.82,1.18-335.27-20.82-351.84-82.96-16.22-60.83,36.69-198.87,139.01-365.57C247.64,202.1,359.04,54.39,405.62,58.18ZM406.37,20.94c-4.73,0-9.88.95-15.72,3.13-45.28,16.93-109.36,101.9-137.54,140.75-74.41,102.6-143.82,222.82-194.37,337.86-22.32,50.79-56.36,131.1-51.8,185.76,3.48,41.68,73.62,57.74,109.02,65.58,83.11,18.4,180.67,26.02,276.45,26.02,70.35,0,139.74-4.11,201.76-11.08,49.74-5.59,166.06-18.82,199.37-55.74,22.95-25.45,4.89-84.73-4.28-114.4-32.81-106.15-94.79-219.53-153.03-315.34-45.89-75.51-121.24-194.15-193.77-245.82-12.53-8.92-22.56-16.71-36.1-16.71h0Z"/>
          </g>
        </g>
      </g>
      <g id="Broom">
        <g id="Shadow">
          <g class="cls-18">
            <path id="Shadow-2" data-name="Shadow" class="cls-17" d="M566.09,339.67c-1.45-8.91-5.75-17.22-11.94-23.8,3.52-5.76,86.28-141.42,114.34-187.26,27.27-44.57-26.94-80.51-57.09-29.61-26.11,44.07-84.26,143.17-111.39,187.83-45.56-12.34-66.61,21.51-74.77,61.45-33.02,2.01-59.61,30-82.9,49.28-49.45,40.77-135.09,103.05-211.91,106.7h0s0,0,0,0c0,0,1.27,2.21,3.44,5.7,0,0,0,0,0,0,8.45,17.56,48.54,57.51,65.47,60.18,16.91,4.84,14.45,16.22,37.13,34.54,0,0,0,0-.01,0,11.05,11.62,47.4,25.74,57.37,24.68,1.95.08,15.51-.46,28.37,9.01,0,0,11.89,12.65,31.47,22.63,0,0,0,0,0,0,15.66,8.01,33.25,12.57,50.91,11.76,7.72,0,14.66-4.03,32.18,2.23,0,0,0,0,0,0,4.2,1.85,53.11-.42,67.63-16.99,27.85-31.78,86.63-213.46,43.95-254.31-.05-.04,4.82-12.64,5.48-13.91,7.94-15.46,15.17-32.51,12.3-50.11Z"/>
          </g>
        </g>
        <g id="Rod">
          <g class="cls-8">
            <path class="cls-12" d="M543.35,304.35l-2.86.51c-15.79-10.72-33.98-18.42-52.73-22.1l-1.65-2.38c25.45-41.62,80.02-151.48,107.21-197.38,30.15-50.9,84.36-14.95,57.09,29.61-28.66,46.84-107.08,191.74-107.08,191.74Z"/>
            <path class="cls-15" d="M521.07,302.2s111.26-195.87,118.22-208.38c9.68-17.41,11.3-27.66,3.85-32.12l55.92,24.8-149.52,251.75-28.47-36.05Z"/>
            <path class="cls-10" d="M493.69,290.73s111.62-205.18,116.92-212.37c5.27-7.16,13.37-11.1,15.66-12.13,2.12-.96,2.21-3.65-1.46-2.88-6.36,1.35-19.23,8.34-24.8,18.33-5.65,10.15-114.96,210.95-114.96,210.95l8.63-1.9Z"/>
          </g>
        </g>
        <g id="Hairs">
          <path class="cls-13" d="M538.28,299.22c-12.68-10.62-40.23-23.18-56.52-25.6-28.14-4.18-48.31,8.99-58.4,34.92-1.71,4.4-7.42,24.09-8.79,28.01-33.02,2.01-59.6,30-82.9,49.28-49.36,40.87-131.74,103.18-207.65,106.54,0,0,16.34,28.33,31.95,42.57,15.92,14.51,24.87,20.11,32.76,22.38,3.35.96,6.83.88,10.67-.34,30.37-9.66,106.54-42.69,145.36-76.37-27.5,41.89-86.37,76.89-138.16,90.94,0,0,10.71,17.09,35.64,31.63,17.84,10.4,36.86,13.19,40.99,13.37,3.26.14,7.1-.7,9.77-1.93,59.38-27.42,105.35-61.21,138.65-115.02-12.96,61.94-65.59,92.55-120.05,125.95,0,0,34.31,36.54,82.38,34.39,2.3-.1,7.47-.24,9.96-2.44,26.81-23.73,59.44-47.77,77.72-86.19-4.2,38.19-30.29,65.02-55.51,90.86,0,0,51.38,8.5,70.52-13.64,30.55-35.34,56.78-158.29,57.62-184,.69-21.34-2.1-55.9-17.06-72.52,17.43-30.36,31.55-67.26,1.07-92.79Z"/>
          <path class="cls-4" d="M448.69,430.42s-2.03,32.41-17.29,69.54c0,.01-.01.01-.01.02-33.29,53.58-79.17,87.28-138.41,114.63-2.66,1.24-6.51,2.07-9.76,1.93-4.13-.17-23.15-2.96-41-13.36-6.37-3.71-11.81-7.59-16.38-11.32,82.8-15.07,182.83-82.75,222.85-161.44Z"/>
          <path class="cls-3" d="M545.97,406.58c-.34-.82-.69-1.64-1.06-2.43-.06-.13-.12-.26-.18-.39-.38-.81-.77-1.62-1.18-2.4-.02-.04-.04-.08-.06-.12-.44-.84-.89-1.65-1.36-2.45-.05-.09-.11-.18-.17-.27-.39-.66-.8-1.3-1.22-1.92-.13-.19-.26-.38-.39-.58-.37-.54-.76-1.07-1.15-1.58-.13-.17-.26-.35-.39-.52-.52-.66-1.05-1.31-1.61-1.93,17.43-30.36,31.55-67.26,1.07-92.78-2-1.67-4.37-3.4-7.01-5.12,13.34,33.59-27.27,69.08-27.27,69.08,10.19,116.9-80.85,253-160.96,285,13.69,6.97,31.14,12.65,50.91,11.76,2.3-.11,7.48-.25,9.97-2.45,26.8-23.72,59.44-47.77,77.72-86.18-4.2,38.19-30.3,65.02-55.51,90.87,0,0,51.38,8.5,70.52-13.64,30.56-35.33,56.79-158.29,57.62-184,.53-16.18-.96-39.96-8.23-57.76-.02-.06-.05-.12-.07-.18Z"/>
          <path class="cls-14" d="M500.16,278.72l-.08-.18c-6.69-2.47-13.1-4.3-18.33-5.08-28.14-4.18-48.31,8.99-58.4,34.92-1.71,4.4-7.42,24.09-8.79,28.01,0,0-.01,0-.02,0l.02.15c-33.02,2.01-59.61,30-82.9,49.28-49.37,40.87-131.75,103.18-207.65,106.54,0,0,1.27,2.21,3.44,5.7,45.66,10.04,109.61-17.33,137.66-33.07,41.1-23.08,63.2-59.47,118.87-99.52,6.57-4.73,18.63-16.41,58.98-26.25,0,0-1.31-52.03,57.2-60.49Z"/>
        </g>
        <g id="Clip">
          <g class="cls-9">
            <path class="cls-12" d="M544.39,378.82c-1.77,4.69-4.05,8.63-7.18,13.19-24.63-27.35-85.36-57.73-122.87-55.45,1.49-6.02,2.65-9.32,4.52-14.24,23.73-2,47.74,4.16,68.94,14.04,21.01,9.79,42.73,23.74,56.58,42.46Z"/>
            <path class="cls-10" d="M420.18,338.46s3.49-14.97,6.01-18.65c0,0,11.61,0,23.4,2.71,0,0-6.77,13.54-7.14,19.25l-22.27-3.32Z"/>
            <path class="cls-15" d="M519.64,350.93s-3.48,13.35-10.25,21.86l28.89,26.84,17.02-22.82-35.66-25.87Z"/>
          </g>
        </g>
      </g>
    </g>
  </g>
</svg>